<svg width="300" height="301" viewBox="0 0 300 301" fill="none" xmlns="http://www.w3.org/2000/svg">
<rect width="300" height="301" fill="#F5F5F5"/>
<path d="M160 293.5C160 293.224 160.224 293 160.5 293H162.5C162.776 293 163 293.224 163 293.5C163 293.776 162.776 294 162.5 294H160.5C160.224 294 160 293.776 160 293.5Z" fill="white"/>
<path d="M160.5 293V294H162.5V293V292H160.5V293ZM162.5 294V293H160.5V294V295H162.5V294ZM160.5 294V293C160.776 293 161 293.224 161 293.5H160H159C159 294.328 159.672 295 160.5 295V294ZM163 293.5H162C162 293.224 162.224 293 162.5 293V294V295C163.328 295 164 294.328 164 293.5H163ZM162.5 293V294C162.224 294 162 293.776 162 293.5H163H164C164 292.672 163.328 292 162.5 292V293ZM160.5 293V292C159.672 292 159 292.672 159 293.5H160H161C161 293.776 160.776 294 160.5 294V293Z" fill="black" fill-opacity="0.1"/>
<path d="M150 0.5C232.567 0.5 299.5 67.4334 299.5 150C299.5 232.567 232.567 299.5 150 299.5C67.4334 299.5 0.5 232.567 0.5 150C0.5 67.4334 67.4334 0.5 150 0.5Z" fill="white" stroke="black"/>
<path d="M150 0.5C232.567 0.5 299.5 67.4334 299.5 150C299.5 232.4 232.837 299.227 150.5 299.496V293.496C229.523 293.227 293.5 229.086 293.5 150C293.5 70.7471 229.253 6.5 150 6.5C70.7471 6.5 6.5 70.7471 6.5 150C6.5 229.086 70.4771 293.227 149.5 293.496V299.496C67.1634 299.227 0.5 232.4 0.5 150C0.5 67.4334 67.4334 0.5 150 0.5Z" fill="black" stroke="black"/>
<path d="M37 188C37 105.157 104.157 38 187 38V188H37Z" fill="#FB48C4"/>
<g filter="url(#filter0_d_20_526)">
<path d="M293 150C293 228.977 228.977 293 150 293V150H293Z" fill="#00C0E8"/>
</g>
<path d="M188 150.5C188 171.211 171.211 188 150.5 188C129.789 188 113 171.211 113 150.5C113 129.789 129.789 113 150.5 113C171.211 113 188 129.789 188 150.5Z" fill="#FFBD59"/>
<g clip-path="url(#clip0_20_526)">
<path d="M155.902 205H128.524L92.0586 95.3823L117.314 95.1875L155.902 204.581V205Z" fill="#231F20"/>
<path d="M78.798 204.999H55L85.3881 126.326L94.8849 159.219L78.798 204.999Z" fill="#231F20"/>
<path d="M187.763 176.296L165.398 205V95H187.018L187.763 176.296Z" fill="#231F20"/>
<path d="M225.638 95H204.018V142.204H225.638V95Z" fill="#231F20"/>
<path d="M210.48 95L223.195 115.23H173.605V95H210.48Z" fill="#231F20"/>
<path d="M225.638 157.189H204.018L224.493 205H245L225.638 157.189Z" fill="#231F20"/>
</g>
<defs>
<filter id="filter0_d_20_526" x="146" y="150" width="151" height="151" filterUnits="userSpaceOnUse" color-interpolation-filters="sRGB">
<feFlood flood-opacity="0" result="BackgroundImageFix"/>
<feColorMatrix in="SourceAlpha" type="matrix" values="0 0 0 0 0 0 0 0 0 0 0 0 0 0 0 0 0 0 127 0" result="hardAlpha"/>
<feOffset dy="4"/>
<feGaussianBlur stdDeviation="2"/>
<feComposite in2="hardAlpha" operator="out"/>
<feColorMatrix type="matrix" values="0 0 0 0 0 0 0 0 0 0 0 0 0 0 0 0 0 0 0.25 0"/>
<feBlend mode="normal" in2="BackgroundImageFix" result="effect1_dropShadow_20_526"/>
<feBlend mode="normal" in="SourceGraphic" in2="effect1_dropShadow_20_526" result="shape"/>
</filter>
<clipPath id="clip0_20_526">
<rect width="190" height="110" fill="white" transform="translate(55 95)"/>
</clipPath>
</defs>
</svg>
